<svg xmlns="http://www.w3.org/2000/svg" width="500" height="500" viewBox="0 0 500 500" version="1.1"><path d="M 240.500 50.084 C 236.100 50.529, 231.825 50.962, 231 51.046 C 228.326 51.318, 217.529 55.203, 216.500 56.264 C 215.817 56.967, 216.135 57.045, 217.500 56.508 C 221.023 55.123, 230.693 54.694, 231.431 55.889 C 231.809 56.500, 233.184 57, 234.486 57 C 236.855 57, 240 61.432, 240 64.770 C 240 65.795, 240.756 66.089, 242.524 65.751 C 243.912 65.485, 245.289 65.658, 245.583 66.134 C 245.877 66.610, 248.540 67, 251.500 67 C 254.460 67, 257.160 67.450, 257.500 68 C 257.840 68.550, 259.415 69, 261 69 C 262.585 69, 264.160 69.450, 264.500 70 C 265.969 72.377, 267.053 70.799, 266.388 67.250 C 265.014 59.908, 262.505 55.665, 256.982 51.339 C 254.750 49.592, 249.390 49.183, 240.500 50.084 M 202.406 63.499 C 200.807 64.873, 200.037 65.998, 200.694 65.999 C 202.213 66, 207.877 61.074, 206.406 61.032 C 205.804 61.014, 204.004 62.124, 202.406 63.499 M 227.500 64.013 C 226.400 64.418, 225.162 64.554, 224.750 64.316 C 224.338 64.077, 224 64.306, 224 64.824 C 224 66.396, 227.553 66.810, 229.965 65.519 C 232.678 64.067, 230.675 62.844, 227.500 64.013 M 218.534 87.944 C 218.176 88.525, 216.820 89, 215.523 89 C 212.057 89, 203.074 93.799, 198.610 98.036 C 195.540 100.950, 194.675 102.546, 194.505 105.614 C 194.210 110.940, 195.497 114, 198.034 114 C 199.180 114, 199.840 113.550, 199.500 113 C 199.160 112.450, 199.610 112, 200.500 112 C 201.390 112, 201.853 112.429, 201.529 112.953 C 200.443 114.709, 209.041 116.304, 213.077 115.095 C 215.087 114.493, 218.397 114, 220.432 114 C 222.467 114, 224.997 113.537, 226.056 112.970 C 227.494 112.200, 228.613 112.355, 230.490 113.585 C 232.900 115.164, 233.948 118, 232.121 118 C 230.206 118, 228.922 123.973, 229.205 131.567 C 229.470 138.691, 229.730 139.601, 231.750 140.487 C 232.988 141.030, 234 141.987, 234 142.615 C 234 143.242, 234.675 144.315, 235.500 145 C 237.570 146.718, 237.412 150.927, 235.250 151.640 C 234.287 151.957, 231.499 153.111, 229.054 154.205 C 226.609 155.299, 221.997 156.680, 218.804 157.274 C 215.612 157.867, 213 158.724, 213 159.177 C 213 159.629, 212.289 160, 211.421 160 C 210.174 160, 209.976 160.686, 210.479 163.250 C 210.830 165.037, 211.491 167.400, 211.949 168.500 C 212.930 170.858, 216.127 188.959, 216.453 194 C 216.577 195.925, 216.358 197.950, 215.967 198.500 C 215.576 199.050, 215.028 203.678, 214.751 208.785 C 214.392 215.395, 213.780 218.586, 212.624 219.863 C 211.731 220.850, 211 222.031, 211 222.487 C 211 222.944, 209.313 226.727, 207.250 230.893 C 203.421 238.628, 202.722 239.412, 168.250 274.575 C 163.713 279.203, 160 283.284, 160 283.642 C 160 284.001, 158.313 286.351, 156.250 288.864 C 152.408 293.546, 150 297.511, 150 299.155 C 150 299.664, 149.099 301.300, 147.998 302.790 C 145.519 306.147, 142.985 318.954, 143.044 327.838 C 143.082 333.742, 143.480 336.602, 145.551 345.862 C 147.358 353.936, 158.934 368.338, 166.137 371.470 C 167.987 372.275, 171.750 374.489, 174.500 376.391 C 177.651 378.570, 179.652 379.414, 179.912 378.674 C 180.493 377.019, 183.221 375.069, 185.009 375.032 C 186.650 374.997, 189.506 378.827, 188.552 379.782 C 188.229 380.104, 190.110 381.410, 192.732 382.683 C 195.355 383.956, 198.374 385.560, 199.442 386.249 C 211.309 393.897, 221.241 398.695, 227.168 399.643 C 229.300 399.984, 231.274 400.634, 231.554 401.088 C 231.835 401.541, 232.612 401.735, 233.282 401.518 C 233.952 401.301, 237.262 400.896, 240.637 400.618 C 245.650 400.206, 255.416 397.961, 268.250 394.270 C 269.212 393.993, 270 393.144, 270 392.383 C 270 391.623, 270.563 390.933, 271.250 390.852 C 275.149 390.390, 276.619 390.653, 277.669 392 C 278.606 393.202, 282.181 393.566, 295.669 393.834 L 312.500 394.169 317.334 391.334 C 319.992 389.775, 324.267 387.332, 326.834 385.906 C 339.391 378.923, 341.519 377.536, 343.762 374.871 C 345.091 373.292, 346.628 372, 347.178 372 C 348.333 372, 357 363.308, 357 362.150 C 357 361.725, 357.788 360.480, 358.750 359.384 C 360.759 357.096, 362.713 354.170, 363.683 352 C 364.051 351.175, 366.073 348.524, 368.176 346.109 C 370.279 343.694, 372 340.766, 372 339.602 C 372 337.714, 371.524 337.523, 367.597 337.836 C 363.947 338.126, 363.089 337.856, 362.581 336.254 C 361.928 334.198, 364.469 327, 365.847 327 C 367.282 327, 373.677 316.601, 373.842 314 C 374.251 307.524, 372.130 305.713, 362.845 304.615 C 359.303 304.196, 358.055 304.415, 357.626 305.532 C 356.891 307.448, 351.605 307.434, 350.011 305.513 C 348.689 303.920, 349.399 300.511, 350.865 301.416 C 351.968 302.098, 357 296.130, 357 294.141 C 357 293.330, 357.279 292.945, 357.619 293.286 C 358.344 294.010, 361 291.581, 361 290.194 C 361 289.672, 361.675 288.685, 362.500 288 C 363.562 287.119, 364 284.786, 364 280.009 L 364 273.263 359.750 272.672 C 356.453 272.214, 355.214 272.459, 354.225 273.766 C 353.156 275.178, 352.624 275.247, 350.931 274.189 C 349.373 273.216, 347.556 273.174, 342.968 274.006 C 339.250 274.680, 336.365 274.737, 335.262 274.158 C 334.293 273.649, 331.475 272.904, 329 272.503 C 326.525 272.102, 324.050 271.435, 323.500 271.022 C 322.299 270.119, 309.553 266, 307.959 266 C 307.342 266, 304.173 264.439, 300.918 262.531 C 297.663 260.624, 295 259.304, 295 259.599 C 295 259.895, 293.731 259.233, 292.180 258.128 C 290.629 257.024, 288.725 255.980, 287.950 255.810 C 286.307 255.449, 282.551 250.989, 279 245.182 C 277.383 242.537, 275.529 240.872, 273.750 240.467 C 272.238 240.123, 271 239.175, 271 238.362 C 271 237.548, 271.450 237.160, 272 237.500 C 272.550 237.840, 273 237.641, 273 237.059 C 273 236.477, 272.590 236, 272.088 236 C 271.586 236, 270.860 234.133, 270.475 231.852 C 270.090 229.570, 269.085 226.083, 268.242 224.102 C 267.399 222.121, 266.618 219.375, 266.506 218 C 265.136 201.188, 264.844 190.882, 265.708 189.781 C 266.260 189.077, 266.746 185.853, 266.787 182.619 C 266.829 179.384, 267.344 176.256, 267.931 175.669 C 268.519 175.081, 269 173.287, 269 171.681 C 269 170.076, 269.865 166.003, 270.921 162.631 C 275.714 147.339, 276.383 142.897, 276.364 126.500 C 276.354 117.700, 276.096 109.020, 275.792 107.210 C 275.211 103.760, 272.282 99.708, 270.960 100.525 C 270.534 100.788, 270.401 100.183, 270.663 99.182 C 270.925 98.180, 270.545 96.887, 269.820 96.309 C 267.391 94.374, 250.553 89.240, 246.072 89.068 C 243.637 88.974, 241.320 88.698, 240.923 88.453 C 239.206 87.391, 219.158 86.936, 218.534 87.944 M 249 104.899 C 249 105.440, 249.495 106.188, 250.101 106.562 C 250.739 106.957, 250.951 108.494, 250.606 110.219 C 249.745 114.526, 250.862 118, 253.108 118 C 254.149 118, 255 118.450, 255 119 C 255 119.550, 255.900 120, 257 120 C 258.100 120, 259.001 119.662, 259.003 119.250 C 259.004 118.838, 260.368 117.600, 262.033 116.500 C 264.817 114.661, 265.038 114.097, 264.780 109.500 L 264.500 104.500 256.750 104.208 C 252.141 104.034, 249 104.314, 249 104.899 M 270.659 155.200 C 271.501 159.622, 272 160.003, 272 156.226 C 272 154.516, 271.557 152.844, 271.015 152.509 C 270.400 152.129, 270.266 153.139, 270.659 155.200 M 379 247.033 C 375.975 248.675, 372.825 250.396, 372 250.858 C 371.175 251.321, 368.025 252.958, 365 254.497 C 355.711 259.221, 346.542 264.198, 345.690 264.978 C 345.244 265.386, 347.269 265.303, 350.190 264.792 C 361.642 262.791, 365.643 263.991, 370.397 270.851 C 372.619 274.057, 373 275.674, 373 281.889 C 373 288.954, 372.896 289.263, 369.500 292.269 C 366.379 295.033, 364.583 297.994, 366.895 296.565 C 367.388 296.260, 368.036 296.652, 368.337 297.436 C 368.638 298.219, 370.860 299.156, 373.276 299.519 C 378.761 300.341, 379.314 300.706, 381.477 304.926 C 382.820 307.545, 383.084 309.625, 382.600 313.746 C 382.183 317.298, 382.313 318.924, 382.983 318.510 C 383.542 318.165, 384.025 317.346, 384.056 316.691 C 384.087 316.036, 386.562 313.566, 389.556 311.203 C 396.565 305.670, 396.768 303.344, 390.250 303.244 C 387.637 303.205, 384.969 303.612, 384.320 304.151 C 383.495 304.834, 382.760 304.431, 381.881 302.815 C 380.182 299.688, 380.051 296.918, 381.576 296.332 C 383.627 295.546, 390.849 288.321, 391.051 286.855 C 391.153 286.110, 391.177 284.825, 391.103 284 C 390.993 282.765, 390.816 282.741, 390.104 283.866 C 389.448 284.902, 388.786 284.970, 387.369 284.147 C 385.572 283.103, 385.577 283.057, 387.500 282.951 C 388.640 282.889, 388.948 282.620, 388.216 282.327 C 387.510 282.043, 386.368 282.280, 385.677 282.853 C 384.799 283.582, 383.682 283.528, 381.961 282.675 C 378.724 281.070, 378.088 275.912, 380.793 273.207 C 383.427 270.573, 388.807 255.297, 389.187 249.371 C 389.480 244.807, 389.342 244.486, 387 244.275 C 385.625 244.151, 382.025 245.392, 379 247.033 M 390.824 271.328 C 389.255 274.260, 391.097 275.189, 396.939 274.414 C 405.572 273.268, 404.915 268.878, 396.167 269.255 C 393.072 269.389, 391.545 269.981, 390.824 271.328" stroke="none" fill="#fcf3ea" fill-rule="evenodd"/><path d="M 184.250 119.944 C 181.886 121.916, 181.402 123, 182.885 123 C 183.372 123, 184.507 121.875, 185.408 120.500 C 187.352 117.534, 187.216 117.469, 184.250 119.944 M 212 122.889 C 212 123.378, 212.563 123.757, 213.250 123.731 C 218.615 123.532, 218.995 123.855, 219.157 128.750 L 219.314 133.500 219.935 128.500 C 220.276 125.750, 220.403 123.162, 220.218 122.750 C 219.740 121.684, 212 121.815, 212 122.889 M 160.489 137.017 C 159.761 138.196, 147.950 146, 146.895 146 C 146.506 146, 146.422 146.897, 146.708 147.992 C 147.055 149.320, 148.610 150.335, 151.365 151.034 C 153.639 151.611, 156.400 152.452, 157.500 152.903 C 163.428 155.333, 167.580 155.995, 176.571 155.942 C 182.032 155.911, 188.300 155.492, 190.500 155.011 C 193.309 154.398, 189.983 154.192, 179.336 154.319 C 165.050 154.490, 163.996 154.370, 161.140 152.260 C 159.473 151.029, 157.428 150.282, 156.596 150.602 C 155.052 151.194, 148 149.297, 148 148.290 C 148 147.440, 152.198 143.967, 155 142.500 C 157.513 141.183, 162.883 136, 161.733 136 C 161.395 136, 160.835 136.458, 160.489 137.017 M 221.032 143.890 C 221.014 144.654, 220.213 145.855, 219.252 146.558 C 216.944 148.245, 218.098 149.264, 221.382 148.440 C 224.396 147.684, 224.558 147.120, 222.532 144.441 C 221.529 143.116, 221.054 142.941, 221.032 143.890 M 210.500 150.727 C 208.850 150.962, 207.064 151.578, 206.531 152.096 C 205.297 153.296, 212.117 152.086, 213.450 150.868 C 213.972 150.390, 214.197 150.067, 213.950 150.150 C 213.703 150.232, 212.150 150.492, 210.500 150.727 M 285.500 400.713 C 282.280 401.488, 281.760 402.510, 280.932 409.692 C 280.501 413.436, 279.860 417.850, 279.508 419.500 C 278.919 422.266, 278.984 422.358, 280.347 420.678 C 281.777 418.916, 281.838 418.916, 282.217 420.678 C 282.432 421.680, 281.934 423.567, 281.109 424.871 C 279.712 427.082, 279.562 427.116, 278.876 425.371 C 278.209 423.674, 278.134 423.701, 278.070 425.669 C 277.989 428.169, 275.300 433.471, 272.750 436.157 C 271.788 437.170, 271 438.636, 271 439.414 C 271 440.191, 268.466 443.341, 265.369 446.414 L 259.738 452 267.119 451.986 C 277.120 451.968, 279.344 451.308, 278.500 448.612 C 276.926 443.586, 276.863 441.930, 278.137 439.052 C 278.880 437.373, 279.828 436, 280.244 436 C 280.660 436, 281 434.884, 281 433.521 C 281 430.863, 284.584 418.481, 286.071 416 C 288.163 412.511, 289.846 407.966, 290.022 405.328 C 290.400 399.692, 290.275 399.564, 285.500 400.713 M 210.210 404.320 C 210.492 405.794, 210.291 407, 209.762 407 C 209.199 407, 208.909 410.825, 209.062 416.250 C 209.204 421.337, 209.046 426.175, 208.710 427 C 208.374 427.825, 207.623 430.360, 207.042 432.634 C 206.461 434.907, 205.293 437.342, 204.447 438.044 C 203.601 438.746, 203.149 439.947, 203.443 440.712 C 203.737 441.478, 203.532 441.829, 202.989 441.493 C 202.445 441.157, 202 441.340, 202 441.901 C 202 443.287, 196.817 448, 195.292 448 C 194.610 448, 194.319 448.668, 194.638 449.500 C 195.062 450.603, 196.803 451, 201.214 451 C 205.707 451, 207.089 450.676, 206.718 449.708 C 206.446 448.998, 206.847 447.562, 207.611 446.517 C 208.375 445.472, 209 442.660, 209 440.267 C 209 437.299, 209.635 435.234, 211 433.770 C 212.100 432.589, 213 430.583, 213 429.311 C 213 428.040, 213.340 427, 213.756 427 C 215.004 427, 216.792 421.844, 217.530 416.121 C 217.999 412.481, 218.505 411.188, 219.096 412.121 C 219.576 412.880, 220.011 413.050, 220.061 412.500 C 220.112 411.950, 220.319 410.611, 220.521 409.525 C 220.937 407.293, 219.477 406.038, 216.439 406.015 C 215.305 406.007, 213.324 405.019, 212.038 403.820 L 209.698 401.641 210.210 404.320 M 201.590 444.901 C 200.453 446.157, 200.234 447.026, 200.944 447.465 C 202.765 448.591, 206 446.971, 206 444.933 C 206 442.465, 203.808 442.450, 201.590 444.901" stroke="none" fill="#e5cb50" fill-rule="evenodd"/><path d="M 277.378 126 C 277.378 132.325, 277.541 134.912, 277.739 131.750 C 277.937 128.587, 277.937 123.412, 277.739 120.250 C 277.541 117.087, 277.378 119.675, 277.378 126 M 222.137 143.739 C 223.702 146.547, 224.618 147.431, 224.848 146.360 C 225.040 145.470, 223.976 143.562, 222.485 142.121 L 219.773 139.500 222.137 143.739 M 215.250 150.031 C 211.787 151.423, 212.585 152.036, 216.250 150.800 C 218.037 150.196, 219.688 149.545, 219.917 149.352 C 220.730 148.665, 217.465 149.141, 215.250 150.031 M 192.500 155 L 187.500 155.686 192.500 155.743 C 195.250 155.775, 198.625 155.440, 200 155 L 202.500 154.199 200 154.257 C 198.625 154.288, 195.250 154.623, 192.500 155 M 265.272 201 C 265.272 203.475, 265.467 204.488, 265.706 203.250 C 265.944 202.012, 265.944 199.988, 265.706 198.750 C 265.467 197.512, 265.272 198.525, 265.272 201 M 281.667 400.667 C 281.300 401.033, 281.032 402.271, 281.070 403.417 C 281.139 405.440, 281.163 405.443, 281.913 403.523 C 282.338 402.436, 283.769 401.243, 285.093 400.873 L 287.500 400.199 284.917 400.100 C 283.496 400.045, 282.033 400.300, 281.667 400.667 M 208.715 402.699 C 209.105 403.716, 209.524 403.929, 209.757 403.229 C 210.012 402.464, 210.879 402.741, 212.262 404.030 C 213.425 405.113, 215.305 406.007, 216.439 406.015 C 219.477 406.038, 220.937 407.293, 220.521 409.525 C 220.319 410.611, 220.112 411.950, 220.061 412.500 C 220.011 413.050, 219.576 412.880, 219.096 412.121 C 218.506 411.190, 218.007 412.487, 217.556 416.121 C 216.896 421.434, 215.306 425.914, 213.653 427.120 C 213.186 427.461, 212.970 428.586, 213.174 429.620 C 213.626 431.918, 221.724 413.864, 222.184 409.529 C 222.513 406.435, 222.819 406.685, 212.764 401.837 C 209.834 400.425, 207.993 400.817, 208.715 402.699 M 288.079 412.050 C 288.036 412.903, 287.450 414.150, 286.778 414.822 C 286.105 415.495, 284.729 418.847, 283.718 422.272 C 281.805 428.759, 280.538 434.599, 281.608 432 C 286.740 419.530, 289.087 412.809, 288.669 411.771 C 288.319 410.901, 288.133 410.989, 288.079 412.050 M 277.509 423.957 C 276.699 427.647, 273.353 434.664, 272.007 435.495 C 271.453 435.838, 271 436.541, 271 437.059 C 271 438.609, 274.377 434.621, 276.186 430.935 C 277.944 427.354, 279.525 421, 278.659 421 C 278.384 421, 277.867 422.331, 277.509 423.957 M 208.631 423.787 C 208.227 424.441, 207.264 427.406, 206.490 430.376 C 204.977 436.186, 200.214 444.036, 196.716 446.487 C 195.527 447.319, 195.002 448, 195.549 448 C 198.360 448, 206.338 436.658, 207.508 431 C 207.905 429.075, 208.672 426.953, 209.210 426.284 C 209.749 425.615, 210.004 424.512, 209.778 423.833 C 209.463 422.890, 209.193 422.879, 208.631 423.787 M 210.722 434.011 C 209.672 435.238, 209 437.699, 209 440.320 C 209 442.684, 208.375 445.472, 207.611 446.517 C 206.847 447.562, 206.446 448.998, 206.718 449.708 C 207.481 451.695, 196.072 451.481, 194.610 449.481 C 193.624 448.133, 193.217 448.160, 191 449.714 L 188.500 451.465 192.500 452.175 C 199.393 453.398, 205.748 453.110, 207.357 451.501 C 208.181 450.676, 209.136 447.413, 209.478 444.251 C 209.820 441.088, 210.746 437.038, 211.534 435.250 C 213.203 431.466, 213.072 431.267, 210.722 434.011 M 278.250 438.707 C 276.695 442.056, 276.674 444.189, 278.162 447.457 C 278.802 448.860, 279.034 450.299, 278.678 450.655 C 278.323 451.010, 275.212 451.622, 271.766 452.014 L 265.500 452.726 270.625 452.863 C 273.444 452.938, 277.102 452.730, 278.755 452.399 C 281.219 451.906, 281.664 451.411, 281.225 449.649 C 280.930 448.467, 280.125 446.670, 279.435 445.656 C 278.420 444.165, 278.450 443.168, 279.590 440.438 C 281.205 436.575, 281.291 435.997, 280.250 436.008 C 279.837 436.012, 278.938 437.227, 278.250 438.707 M 268.078 442.248 C 265.822 445.028, 265.803 445.140, 267.809 443.887 C 269.734 442.685, 271.491 440.079, 270.774 439.489 C 270.623 439.365, 269.410 440.606, 268.078 442.248 M 261.050 449.447 C 259.786 450.792, 257.795 452.063, 256.626 452.271 C 254.721 452.609, 254.683 452.730, 256.258 453.434 C 257.224 453.866, 259.699 453.870, 261.758 453.443 L 265.500 452.667 262.500 451.991 C 260.142 451.459, 259.858 451.157, 261.173 450.580 C 262.093 450.176, 263.091 449.205, 263.391 448.423 C 264.155 446.432, 263.692 446.634, 261.050 449.447" stroke="none" fill="#e1c264" fill-rule="evenodd"/><path d="M 260.500 54 C 262.648 56.200, 264.631 58, 264.906 58 C 265.181 58, 263.648 56.200, 261.500 54 C 259.352 51.800, 257.369 50, 257.094 50 C 256.819 50, 258.352 51.800, 260.500 54 M 222.500 55.506 C 224.786 56.303, 230.822 56.521, 230.371 55.791 C 230.102 55.356, 227.996 55.036, 225.691 55.079 C 223.386 55.122, 221.950 55.315, 222.500 55.506 M 250.750 74.706 C 251.988 74.944, 254.012 74.944, 255.250 74.706 C 256.488 74.467, 255.475 74.272, 253 74.272 C 250.525 74.272, 249.512 74.467, 250.750 74.706 M 197.464 83.059 C 196.981 83.839, 197.099 84.057, 197.776 83.638 C 199.773 82.405, 200.219 85.098, 198.385 87.313 C 196.627 89.436, 196.645 89.435, 199.005 87.254 C 201.234 85.195, 201.303 84.875, 199.837 83.408 C 198.600 82.172, 198.061 82.092, 197.464 83.059 M 222.250 86.728 C 224.313 86.944, 227.688 86.944, 229.750 86.728 C 231.813 86.513, 230.125 86.336, 226 86.336 C 221.875 86.336, 220.188 86.513, 222.250 86.728 M 235.250 86.689 C 236.213 86.941, 237.787 86.941, 238.750 86.689 C 239.713 86.438, 238.925 86.232, 237 86.232 C 235.075 86.232, 234.287 86.438, 235.250 86.689 M 247.250 88.689 C 248.213 88.941, 249.787 88.941, 250.750 88.689 C 251.713 88.438, 250.925 88.232, 249 88.232 C 247.075 88.232, 246.287 88.438, 247.250 88.689 M 193.149 89.500 C 193.144 90.050, 193.483 91.376, 193.902 92.446 C 194.629 94.304, 194.690 94.292, 195.239 92.195 C 195.555 90.986, 195.444 90.226, 194.992 90.505 C 194.540 90.784, 193.943 90.447, 193.664 89.756 C 193.386 89.065, 193.154 88.950, 193.149 89.500 M 285 90.313 C 285 90.485, 286.462 91.948, 288.250 93.563 L 291.500 96.500 288.563 93.250 C 285.825 90.221, 285 89.540, 285 90.313 M 294.836 100.206 C 295.571 101.145, 295.882 102.382, 295.527 102.956 C 295.172 103.530, 295.359 104, 295.941 104 C 297.613 104, 297.175 101.382, 295.250 99.872 C 293.674 98.636, 293.633 98.669, 294.836 100.206 M 170.250 156.739 C 173.412 156.937, 178.588 156.937, 181.750 156.739 C 184.912 156.541, 182.325 156.378, 176 156.378 C 169.675 156.378, 167.088 156.541, 170.250 156.739 M 214.286 204.500 C 214.294 207.250, 214.488 208.256, 214.718 206.736 C 214.947 205.216, 214.941 202.966, 214.704 201.736 C 214.467 200.506, 214.279 201.750, 214.286 204.500 M 282 248.659 C 282 249.205, 283.238 250.742, 284.750 252.076 L 287.500 254.500 285 251.500 C 283.625 249.850, 282.387 248.313, 282.250 248.083 C 282.113 247.854, 282 248.113, 282 248.659 M 353.597 270.750 C 353.192 271.163, 349.629 272.036, 345.680 272.692 L 338.500 273.883 345.500 273.359 C 349.528 273.057, 353.122 272.233, 353.964 271.417 C 354.770 270.638, 355.182 270, 354.881 270 C 354.580 270, 354.002 270.337, 353.597 270.750 M 371.272 278 C 371.272 280.475, 371.467 281.488, 371.706 280.250 C 371.944 279.012, 371.944 276.988, 371.706 275.750 C 371.467 274.512, 371.272 275.525, 371.272 278 M 388.750 280.706 C 389.988 280.944, 392.012 280.944, 393.250 280.706 C 394.488 280.467, 393.475 280.272, 391 280.272 C 388.525 280.272, 387.512 280.467, 388.750 280.706 M 352.998 300.502 C 350.192 303.397, 349.837 304.220, 350.949 305.252 C 352.031 306.256, 352.145 306.239, 351.534 305.164 C 351.049 304.309, 351.968 302.596, 354.084 300.414 C 355.903 298.536, 357.167 297, 356.892 297 C 356.617 297, 354.865 298.576, 352.998 300.502 M 380.881 308.219 C 381.342 310.996, 381.482 311.136, 381.797 309.135 C 382.002 307.834, 381.757 306.357, 381.253 305.853 C 380.698 305.298, 380.552 306.231, 380.881 308.219 M 181.600 379.154 C 179.960 381.069, 179.945 381.235, 181.460 380.654 C 182.397 380.294, 184.013 380, 185.050 380 C 186.317 380, 186.748 379.507, 186.362 378.500 C 185.552 376.389, 183.756 376.636, 181.600 379.154 M 209 400.721 C 210.375 400.968, 211.928 401.581, 212.450 402.085 C 212.972 402.588, 213.846 403, 214.391 403 C 214.936 403, 214.509 402.339, 213.441 401.532 C 212.374 400.724, 210.375 400.111, 209 400.168 L 206.500 400.272 209 400.721 M 208.343 416.500 C 208.346 420.900, 208.522 422.576, 208.733 420.224 C 208.945 417.872, 208.942 414.272, 208.727 412.224 C 208.512 410.176, 208.339 412.100, 208.343 416.500 M 210.232 440 C 210.232 441.925, 210.438 442.712, 210.689 441.750 C 210.941 440.788, 210.941 439.212, 210.689 438.250 C 210.438 437.288, 210.232 438.075, 210.232 440 M 113.500 450.043 C 95.021 452.859, 93.913 453.348, 93.478 458.881 C 92.957 465.502, 100.066 468.042, 122.500 469.250 C 131.850 469.753, 197.527 470.356, 268.448 470.590 L 397.396 471.015 404.268 468.846 C 412.400 466.280, 416 463.724, 416 460.516 C 416 457.802, 410.427 452.622, 408.360 453.415 C 407.612 453.702, 407 453.559, 407 453.096 C 407 452.633, 403.288 451.498, 398.750 450.572 C 391.529 449.099, 384.203 448.927, 340 449.194 L 289.500 449.500 289.185 452.769 C 288.734 457.460, 285.851 458.913, 275.930 459.449 C 271.294 459.700, 262.036 460.198, 255.359 460.557 C 241.546 461.298, 235.988 460.146, 236.015 456.549 C 236.024 455.422, 236.448 453.840, 236.958 453.034 C 238.905 449.955, 236.164 449, 225.378 449 L 215 449 214.985 452.250 C 214.965 456.328, 214.286 457.296, 210.317 458.900 C 207.767 459.931, 205.311 459.950, 197.965 458.995 C 191.306 458.130, 188.496 458.104, 187.698 458.902 C 186.333 460.267, 171.077 460.360, 167.565 459.025 C 164.227 457.756, 164.045 453.590, 167.250 451.846 L 169.500 450.623 167 449.911 C 163.677 448.965, 119.866 449.074, 113.500 450.043 M 188.667 450.667 C 187.125 452.209, 188.233 452.990, 191.750 452.840 C 195.469 452.681, 195.473 452.677, 192.231 452.275 C 190.433 452.053, 189.222 451.450, 189.540 450.935 C 190.207 449.856, 189.649 449.684, 188.667 450.667" stroke="none" fill="#7e6d66" fill-rule="evenodd"/><path d="M 185.618 120.070 C 184.515 121.936, 183.255 122.928, 182.402 122.601 C 181.630 122.305, 179.477 123.398, 177.617 125.031 C 175.758 126.664, 173.758 128, 173.175 128 C 172.591 128, 171.318 129.346, 170.346 130.992 C 169.374 132.638, 167.164 134.451, 165.436 135.021 C 163.708 135.591, 161.215 137.213, 159.897 138.624 C 158.579 140.035, 156.375 141.779, 155 142.500 C 152.198 143.967, 148 147.440, 148 148.290 C 148 149.297, 155.052 151.194, 156.596 150.602 C 157.428 150.282, 159.461 151.020, 161.112 152.241 C 163.954 154.342, 164.981 154.450, 180.308 154.259 C 196.959 154.050, 203.020 153.531, 206.500 152.015 C 207.600 151.536, 210.133 150.876, 212.128 150.549 C 214.124 150.223, 216.900 148.895, 218.297 147.600 L 220.838 145.245 219.745 134.706 C 218.512 122.812, 218.474 122.772, 209.037 123.532 C 206.582 123.729, 204.028 123.438, 203.361 122.885 C 202.694 122.331, 201.552 121.981, 200.824 122.106 C 198.075 122.579, 192.065 120.730, 190.410 118.901 C 188.127 116.378, 187.743 116.472, 185.618 120.070 M 280.111 421.292 C 279.392 422.637, 278.961 424.561, 279.155 425.568 C 279.466 427.183, 279.698 427.110, 281.109 424.950 C 282.003 423.581, 282.425 421.694, 282.065 420.673 C 281.484 419.027, 281.291 419.089, 280.111 421.292 M 201.590 444.901 C 200.453 446.157, 200.234 447.026, 200.944 447.465 C 202.765 448.591, 206 446.971, 206 444.933 C 206 442.465, 203.808 442.450, 201.590 444.901" stroke="none" fill="#ffcf35" fill-rule="evenodd"/><path d="M 240.537 74.059 C 240.856 74.577, 241.991 75, 243.059 75 C 245.221 75, 245.903 78.978, 243.750 79.030 C 243.063 79.047, 243.325 79.540, 244.332 80.126 C 246.929 81.636, 253.076 80.361, 252.348 78.463 C 252.039 77.658, 251.321 77, 250.753 77 C 250.185 77, 249.221 76.380, 248.610 75.621 C 247.356 74.064, 239.614 72.566, 240.537 74.059 M 252.250 75.689 C 253.213 75.941, 254.787 75.941, 255.750 75.689 C 256.712 75.438, 255.925 75.232, 254 75.232 C 252.075 75.232, 251.287 75.438, 252.250 75.689 M 282.015 91.750 C 282.043 93.082, 283.456 94.630, 285.250 95.292 C 287.425 96.094, 287.519 94.662, 285.429 92.571 C 283.772 90.915, 281.990 90.486, 282.015 91.750 M 289 109.403 C 289 110.615, 294.626 115, 296.181 115 C 297.116 115, 298.160 115.450, 298.500 116 C 298.840 116.550, 299.829 117, 300.699 117 C 301.590 117, 300.781 116.019, 298.844 114.750 C 293.661 111.355, 289 108.824, 289 109.403 M 299.500 148 C 298.713 149.273, 301.030 149.273, 303 148 C 304.219 147.212, 304.090 147.028, 302.309 147.015 C 301.104 147.007, 299.840 147.450, 299.500 148 M 285 150 C 286.957 151.264, 289 151.264, 289 150 C 289 149.450, 287.762 149.007, 286.250 149.015 C 284.107 149.027, 283.831 149.245, 285 150" stroke="none" fill="#82c0b7" fill-rule="evenodd"/><path d="M 289 114.249 C 289 116.075, 288.096 120.140, 286.992 123.282 C 284.818 129.467, 282.597 146.997, 283.831 148.231 C 284.674 149.074, 293.383 149.453, 296.500 148.782 C 297.600 148.545, 300.173 147.597, 302.218 146.675 C 304.263 145.754, 306.241 145, 306.615 145 C 306.988 145, 309.330 143.313, 311.818 141.250 C 314.307 139.188, 316.793 137.201, 317.343 136.835 C 318.587 136.008, 308.349 124, 306.401 124 C 305.630 124, 305 123.358, 305 122.573 C 305 120.729, 298.064 115, 295.831 115 C 294.889 115, 293.841 114.552, 293.503 114.005 C 293.165 113.458, 292.014 112.543, 290.944 111.970 C 289.200 111.037, 289 111.271, 289 114.249" stroke="none" fill="#4bc3e0" fill-rule="evenodd"/><path d="M 272.717 58.750 C 272.496 59.163, 272.649 60.625, 273.058 62 C 273.787 64.454, 273.802 64.457, 273.900 62.193 C 274 59.891, 274.006 59.890, 277.185 61.693 C 283.572 65.317, 291.773 73.442, 292.635 77 C 292.968 78.375, 293.907 80.033, 294.722 80.685 C 295.980 81.690, 295.999 82.159, 294.852 83.777 C 293.591 85.556, 293.327 85.577, 290.910 84.092 C 279.970 77.370, 275.381 72.959, 274.690 68.500 C 274.348 66.293, 274.261 66.544, 274.362 69.449 C 274.505 73.535, 275.311 74.391, 288.365 84.321 C 289.940 85.519, 292.287 87.603, 293.580 88.952 C 296.380 91.873, 296.995 91.455, 297.707 86.149 C 298.684 78.866, 291.195 69.181, 277.500 60.015 C 274.245 57.837, 273.334 57.596, 272.717 58.750 M 222.364 74.092 C 214.950 75.332, 207.500 78.308, 207.500 80.031 C 207.500 81.264, 209.508 81.441, 220 81.134 C 226.875 80.933, 232.667 80.616, 232.870 80.431 C 233.074 80.245, 232.941 78.497, 232.575 76.547 C 231.837 72.617, 231.573 72.553, 222.364 74.092 M 220.232 130 C 220.232 131.925, 220.438 132.713, 220.689 131.750 C 220.941 130.787, 220.941 129.213, 220.689 128.250 C 220.438 127.287, 220.232 128.075, 220.232 130" stroke="none" fill="#c96242" fill-rule="evenodd"/><path d="M 239.413 75.141 C 239.116 75.621, 239.577 76.284, 240.437 76.614 C 241.296 76.944, 242 78.066, 242 79.107 C 242 80.249, 242.694 80.994, 243.750 80.985 C 245.246 80.972, 245.282 80.828, 244 80 C 243 79.354, 242.917 79.026, 243.750 79.015 C 244.438 79.007, 245 78.152, 245 77.117 C 245 75.128, 240.421 73.509, 239.413 75.141 M 248.629 75.477 C 248.951 76.315, 249.793 77, 250.500 77 C 251.207 77, 252.045 77.675, 252.362 78.500 C 252.712 79.414, 252.363 80, 251.469 80 C 249.892 80, 249.470 81.555, 250.820 82.389 C 251.271 82.668, 253.703 83.032, 256.224 83.198 C 258.745 83.364, 260.641 83.771, 260.437 84.102 C 259.937 84.911, 267.986 87.391, 270.500 87.202 C 271.600 87.119, 271.917 87.309, 271.205 87.624 C 270.464 87.951, 272.539 89.441, 276.044 91.098 C 283.179 94.473, 283.113 94.458, 282.362 92.500 C 281.607 90.535, 283.434 90.577, 285.429 92.571 C 287.511 94.654, 287.424 96.054, 285.250 95.454 C 284.288 95.188, 284.850 95.608, 286.500 96.387 C 288.150 97.166, 290.729 98.944, 292.231 100.337 C 293.733 101.730, 295.161 102.549, 295.403 102.157 C 296.062 101.091, 293.231 97.878, 286.101 91.597 C 281.566 87.602, 279.163 86.131, 277.851 86.547 C 276.797 86.882, 276 86.650, 276 86.008 C 276 85.389, 276.450 85.160, 277 85.500 C 277.550 85.840, 278 85.664, 278 85.109 C 278 83.557, 274.959 82.209, 272.608 82.718 C 270.889 83.089, 270.777 82.976, 272 82.102 C 273.313 81.164, 273.297 81.029, 271.872 81.015 C 270.977 81.007, 269.659 80.294, 268.942 79.430 C 268.226 78.567, 266.821 78.075, 265.820 78.337 C 264.819 78.599, 263.996 78.517, 263.992 78.156 C 263.975 76.723, 258.713 75.172, 255.588 75.679 C 253.765 75.975, 251.323 75.708, 250.160 75.085 C 248.399 74.143, 248.143 74.208, 248.629 75.477 M 195 86.830 C 193.625 88.225, 193.250 88.810, 194.166 88.130 C 195.534 87.115, 195.893 87.178, 196.166 88.481 C 196.451 89.832, 196.671 89.790, 197.658 88.194 C 199.603 85.048, 197.713 84.078, 195 86.830 M 254.768 104.725 C 256.565 104.947, 259.265 104.943, 260.768 104.715 C 262.271 104.486, 260.800 104.304, 257.500 104.310 C 254.200 104.315, 252.971 104.502, 254.768 104.725 M 287.358 107.490 C 287.711 108.410, 288.052 110.589, 288.116 112.332 C 288.193 114.433, 288.394 114.826, 288.713 113.500 C 289.461 110.390, 290.738 109.538, 292.482 110.985 C 293.343 111.700, 294.213 112.108, 294.414 111.893 C 294.615 111.677, 292.965 110.221, 290.747 108.658 C 287.861 106.623, 286.898 106.292, 287.358 107.490 M 300.835 115.877 C 301.570 116.343, 302.020 116.909, 301.835 117.136 C 301.651 117.363, 302.512 118.836, 303.750 120.409 C 304.988 121.983, 306 122.915, 306 122.482 C 306 121.680, 307.413 123.187, 313.731 130.725 C 315.679 133.048, 317.614 134.738, 318.032 134.481 C 318.449 134.223, 319.048 134.684, 319.364 135.506 C 319.679 136.328, 319.501 137, 318.969 137 C 317.055 137, 316.482 137.185, 315.261 138.198 C 314.580 138.764, 314.249 139.593, 314.526 140.041 C 314.802 140.489, 314.012 141.179, 312.768 141.574 C 311.525 141.968, 310.044 142.926, 309.476 143.701 C 308.521 145.008, 306.762 145.630, 303 145.991 C 302.018 146.086, 302.280 146.512, 303.762 147.226 C 305.687 148.154, 306.607 147.847, 309.953 145.158 C 312.114 143.421, 314.187 142, 314.559 142 C 314.931 142, 316.688 140.725, 318.463 139.167 L 321.690 136.334 317.095 130.644 C 314.568 127.515, 311.071 124.091, 309.324 123.037 C 307.577 121.982, 305.130 119.743, 303.886 118.060 C 302.642 116.377, 301.146 115.007, 300.562 115.015 C 299.978 115.024, 300.101 115.412, 300.835 115.877 M 255.250 117.689 C 256.212 117.941, 257.788 117.941, 258.750 117.689 C 259.712 117.438, 258.925 117.232, 257 117.232 C 255.075 117.232, 254.287 117.438, 255.250 117.689 M 282.429 144.428 C 282.094 145.763, 282.208 147.549, 282.682 148.397 C 283.280 149.466, 283.545 148.720, 283.545 145.970 C 283.545 141.388, 283.283 141.025, 282.429 144.428 M 288.100 150.750 C 286.419 152.532, 291.344 152.392, 296.500 150.510 L 300.500 149.051 294.890 149.275 C 291.804 149.399, 288.749 150.063, 288.100 150.750" stroke="none" fill="#7eb5b5" fill-rule="evenodd"/><path d="M 274.454 65.615 C 275.377 73.184, 278.060 76.197, 290.910 84.092 C 293.327 85.577, 293.591 85.556, 294.852 83.777 C 295.999 82.159, 295.980 81.690, 294.722 80.685 C 293.907 80.033, 292.968 78.375, 292.635 77 C 291.765 73.407, 283.577 65.323, 277.053 61.615 L 273.736 59.731 274.454 65.615" stroke="none" fill="#e55824" fill-rule="evenodd"/><path d="M 232.500 43.663 C 223.327 45.320, 209.309 51.154, 200.200 57.105 C 191.742 62.632, 187.324 68.558, 186.451 75.548 C 185.462 83.465, 186.322 102.274, 187.694 102.731 C 190.591 103.697, 183.246 111.693, 173 118.726 C 170.525 120.425, 166.721 123.657, 164.547 125.908 C 162.373 128.158, 160.172 130, 159.655 130 C 157.714 130, 141.127 141.158, 139.596 143.494 C 136.228 148.635, 138.408 152.675, 146.822 156.885 C 155.800 161.378, 168.190 163.371, 182.486 162.623 C 189.094 162.277, 196.091 161.732, 198.035 161.412 L 201.571 160.831 203.324 167.166 C 204.289 170.650, 205.510 174.882, 206.039 176.571 C 206.568 178.260, 207 180.773, 207 182.154 C 207 183.536, 207.257 184.924, 207.571 185.238 C 207.885 185.552, 208.284 188.665, 208.458 192.155 C 209.194 206.953, 205.473 220.772, 197.753 231.915 C 195.690 234.893, 185.515 246.143, 175.142 256.915 C 148.945 284.120, 141.148 294.924, 137.470 309.114 C 135.586 316.385, 135.235 335.045, 136.901 339.315 C 137.506 340.863, 138 343.255, 138 344.630 C 138 350.543, 144.768 362.633, 152.018 369.670 C 159.478 376.910, 177.587 386.565, 187.069 388.358 C 188.956 388.715, 192.525 390.353, 195 391.999 C 197.475 393.645, 200.063 394.993, 200.750 394.996 C 201.683 394.999, 202 398.159, 202 407.451 C 202 427.418, 199.460 435.441, 191.226 441.484 C 183.433 447.204, 178.752 448.989, 171.261 449.100 C 166.764 449.166, 165.337 449.438, 167 449.911 L 169.500 450.623 167.250 451.846 C 164.045 453.590, 164.227 457.756, 167.565 459.025 C 171.077 460.360, 186.333 460.267, 187.698 458.902 C 188.496 458.104, 191.277 458.126, 197.857 458.981 C 208.215 460.328, 213.750 459.180, 214.474 455.537 C 214.696 454.416, 215.127 452.150, 215.431 450.500 C 217.296 440.358, 218.605 436.387, 224.001 424.498 C 227.300 417.228, 230 410.317, 230 409.140 C 230 407.130, 230.491 407, 238.073 407 C 246.989 407, 260.318 404.143, 268.750 400.425 L 274 398.110 273.983 404.805 C 273.949 417.914, 268.484 432.068, 260 441.022 C 255.856 445.395, 246.973 449, 240.340 449 C 236.722 449, 235.980 449.271, 236.820 450.284 C 237.496 451.097, 237.546 452.104, 236.958 453.034 C 236.448 453.840, 236.024 455.422, 236.015 456.549 C 235.988 460.146, 241.546 461.298, 255.359 460.557 C 262.036 460.198, 271.294 459.700, 275.930 459.449 C 280.864 459.183, 285.275 458.395, 286.565 457.549 C 289.195 455.826, 290.246 449.685, 288.339 447.178 C 286.562 444.840, 286.696 439.060, 288.647 433.876 C 289.553 431.469, 292.394 423.425, 294.961 416 L 299.627 402.500 305.564 401.757 C 312.586 400.879, 320.701 398.252, 323.500 395.951 C 324.600 395.047, 329.325 392.230, 334 389.692 C 338.675 387.155, 344.418 383.786, 346.762 382.207 C 352.221 378.529, 364.478 364.936, 369 357.542 C 370.925 354.395, 374.188 349.731, 376.250 347.178 C 379.420 343.255, 380 341.793, 380 337.728 C 380 331.790, 381.436 329.603, 393.617 317 C 398.667 311.775, 403.094 306.504, 403.455 305.288 C 404.166 302.888, 402.876 299.738, 399.791 296.346 C 397.839 294.199, 397.842 294.175, 400.808 288.542 C 402.445 285.434, 403.571 282.077, 403.311 281.082 C 402.610 278.401, 394.486 274.653, 390.922 275.366 C 386.925 276.165, 386.919 276.200, 392.853 264.541 C 394.156 261.983, 395.459 257.596, 397.696 248.242 C 398.418 245.225, 396.245 240.213, 393.892 239.466 C 392.852 239.136, 392 238.446, 392 237.933 C 392 236.825, 385.665 236.669, 384.583 237.750 C 384.171 238.162, 383.533 238.537, 383.167 238.582 C 380.795 238.872, 376.265 240.450, 375 241.427 C 372.792 243.133, 369.120 244.663, 363.624 246.166 C 360.943 246.900, 358.532 248.063, 358.267 248.750 C 358.003 249.438, 356.934 250, 355.893 250 C 354.852 250, 354 250.450, 354 251 C 354 251.550, 353.298 252, 352.441 252 C 351.584 252, 351.160 252.450, 351.500 253 C 351.851 253.568, 351 254, 349.528 254 C 348.103 254, 346.679 254.672, 346.364 255.494 C 346.048 256.316, 345.415 256.756, 344.955 256.472 C 344.496 256.188, 342.630 257.263, 340.810 258.861 C 338.989 260.459, 335.747 262.498, 333.604 263.393 C 330.018 264.891, 329.182 264.892, 323.104 263.417 C 319.472 262.535, 311.550 259.450, 305.500 256.560 C 296.824 252.416, 293.179 250.001, 288.250 245.129 C 284.813 241.732, 282 238.526, 282 238.006 C 282 237.485, 280.832 234.506, 279.405 231.386 C 274.869 221.470, 274.181 218.494, 273.499 205.859 C 272.676 190.618, 274.633 174.258, 278.407 164.826 C 279.833 161.260, 281 157.786, 281 157.104 C 281 156.395, 281.748 156.085, 282.750 156.379 C 291.260 158.879, 299.771 157.702, 309.886 152.625 C 318.002 148.552, 326.660 142.504, 328.024 139.954 C 329.208 137.743, 329.302 134.291, 328.191 133.833 C 327.746 133.650, 325.505 131.025, 323.211 128 C 320.917 124.975, 315.240 119.135, 310.594 115.022 L 302.148 107.544 302.625 102.522 C 302.887 99.760, 303.565 93.860, 304.131 89.411 C 305.319 80.082, 304.506 77.181, 298.357 68.805 C 291.272 59.154, 268.403 45.973, 254.420 43.481 C 244.889 41.783, 242.815 41.800, 232.500 43.663 M 232.742 50.085 C 231.775 50.648, 230.620 50.883, 230.175 50.608 C 228.357 49.485, 204.785 59.903, 200.500 63.723 C 194.909 68.708, 190.911 77, 194.099 77 C 195.752 77, 201 71.026, 201 69.144 C 201 66.302, 210.924 59.613, 218.899 57.080 C 223.314 55.677, 227.313 55.714, 232.280 57.202 C 235.609 58.199, 236.622 59.152, 238.236 62.801 C 239.894 66.549, 240.537 67.130, 242.591 66.738 C 243.916 66.485, 245 66.665, 245 67.139 C 245 67.612, 247.673 68, 250.941 68 C 254.209 68, 257.160 68.450, 257.500 69 C 257.840 69.550, 259.415 70, 261 70 C 262.585 70, 264.160 70.450, 264.500 71 C 265.718 72.971, 268 72.015, 268 69.535 C 268 64.648, 264.779 57.464, 260.699 53.250 L 256.584 49 245.542 49.030 C 239.469 49.047, 233.709 49.521, 232.742 50.085 M 272.508 59.732 C 272.912 61.254, 273.525 64.949, 273.871 67.943 C 274.464 73.078, 274.812 73.632, 280 77.729 C 283.025 80.117, 287.919 84.193, 290.875 86.786 C 293.831 89.379, 296.643 91.650, 297.125 91.833 C 298.003 92.168, 298.497 87.675, 298.097 83 C 297.815 79.706, 293.644 73.358, 288.898 69 C 281.826 62.505, 277.363 59.088, 274.561 58.023 C 271.852 56.993, 271.795 57.041, 272.508 59.732 M 222.500 63.873 C 217.246 66.380, 214.328 68.662, 215.227 69.561 C 215.626 69.959, 216.602 69.745, 217.397 69.086 C 218.191 68.426, 221.131 67.869, 223.929 67.847 C 228.724 67.810, 234.435 65.112, 232.927 63.596 C 231.325 61.986, 226.168 62.123, 222.500 63.873 M 222.075 74.087 C 215.679 75.342, 207.610 78.125, 206.816 79.350 C 205.302 81.684, 207.740 82.064, 220.337 81.458 C 227.577 81.109, 233.549 80.751, 233.608 80.662 C 233.668 80.573, 233.506 78.813, 233.249 76.750 C 232.816 73.282, 232.545 73.008, 229.641 73.110 C 227.913 73.170, 224.509 73.610, 222.075 74.087 M 239 75.191 C 239 78.683, 240.991 80.726, 245 81.347 C 246.925 81.645, 250.525 82.289, 253 82.778 C 263.497 84.850, 291.599 98.424, 294.300 102.726 C 295.359 104.413, 297 104.354, 297 102.628 C 297 101.248, 289.016 93.010, 283.575 88.776 C 281.967 87.524, 279.849 85.733, 278.870 84.795 C 273.810 79.949, 258.476 74.378, 247.750 73.489 L 239 72.763 239 75.191 M 195.655 84.988 C 193.218 87.445, 192.917 88.334, 193.555 91.178 C 193.987 93.103, 194.499 93.869, 194.773 93 C 195.033 92.175, 196.633 90.033, 198.328 88.241 C 201.019 85.395, 201.226 84.800, 199.955 83.550 C 198.690 82.306, 198.129 82.494, 195.655 84.988 M 216.500 87.210 C 208.903 89.867, 200.782 94.285, 197.545 97.522 C 194.218 100.849, 194 101.463, 194 107.514 C 194 114.805, 193.179 114.183, 205 115.856 C 208.575 116.361, 212.175 116.437, 213 116.024 C 213.825 115.611, 217.731 115.015, 221.681 114.700 C 229.950 114.041, 231.671 114.994, 229.453 119.003 C 227.427 122.664, 227.464 139.857, 229.500 140.638 C 230.325 140.955, 231 141.760, 231 142.427 C 231 143.094, 232.125 144.618, 233.500 145.813 C 236.182 148.145, 236.835 151, 234.688 151 C 233.966 151, 231.604 151.827, 229.438 152.837 C 227.272 153.847, 222.800 155.269, 219.500 155.998 C 216.200 156.726, 213.072 157.700, 212.550 158.161 C 212.027 158.622, 210.742 159, 209.693 159 C 208.370 159, 207.971 159.481, 208.389 160.573 C 208.721 161.437, 209.730 165.150, 210.631 168.823 C 211.532 172.495, 212.624 176.400, 213.057 177.500 C 213.761 179.287, 215.195 189.946, 215.074 192.500 C 214.504 204.568, 213.544 214.164, 212.865 214.583 C 212.389 214.877, 211.994 215.879, 211.986 216.809 C 211.978 217.739, 209.799 223.017, 207.143 228.538 C 202.657 237.868, 201.368 239.536, 188.908 252.152 C 159.884 281.537, 154.002 288.512, 148.135 300.500 C 143.452 310.071, 143.076 312.010, 142.905 327.500 C 142.794 337.458, 143.155 340.691, 145.024 346.500 C 148.452 357.152, 157.034 367.590, 167 373.229 C 180.724 380.995, 180.493 380.904, 184.241 380.059 C 187.238 379.382, 187.908 379.539, 188.291 381.006 C 188.544 381.972, 190.494 383.323, 192.625 384.008 C 194.756 384.693, 197.175 385.795, 198 386.457 C 200.634 388.572, 215.335 396.805, 220.130 398.851 C 227.377 401.943, 239.023 402.926, 247 401.120 C 261.627 397.808, 269.664 394.988, 271.195 392.630 C 271.684 391.877, 272.893 391.921, 275.266 392.779 C 277.123 393.451, 279.548 394, 280.654 394 C 281.761 394, 282.938 394.271, 283.270 394.603 C 283.601 394.934, 290.314 395.148, 298.186 395.078 C 310.812 394.965, 313.031 394.687, 317 392.725 C 319.475 391.501, 321.758 390.152, 322.073 389.727 C 322.389 389.302, 326.664 386.890, 331.573 384.368 C 336.483 381.846, 341.531 378.706, 342.790 377.391 C 344.050 376.076, 345.454 375, 345.911 375 C 346.368 375, 348.487 373.146, 350.621 370.880 C 352.754 368.614, 355.537 365.812, 356.804 364.653 C 358.071 363.494, 359.932 360.736, 360.940 358.523 C 361.948 356.310, 365.025 351.745, 367.779 348.379 C 370.532 345.012, 373.108 340.785, 373.503 338.985 L 374.222 335.713 369.111 336.391 L 364 337.069 364 334.157 C 364 332.555, 364.722 330.645, 365.605 329.913 C 371.222 325.251, 377.327 311.445, 375.138 308.354 C 373.762 306.411, 368.930 303.996, 366.285 303.930 C 364.753 303.891, 362.600 303.495, 361.500 303.049 C 360.209 302.526, 358.949 302.720, 357.947 303.596 C 356.013 305.287, 351.500 305.873, 351.500 304.433 C 351.500 303.847, 353.975 300.547, 357 297.101 C 360.025 293.655, 363.047 289.860, 363.715 288.668 C 365.373 285.708, 365.401 273.042, 363.750 272.610 C 363.063 272.430, 360.838 271.749, 358.807 271.097 C 356.304 270.294, 354.532 270.230, 353.307 270.901 C 350.455 272.461, 336.658 274.058, 335.555 272.955 C 335.030 272.430, 333.677 272.003, 332.550 272.006 C 328.036 272.018, 304.803 263.554, 295.953 258.673 C 286.588 253.508, 284.728 251.720, 276.519 239.992 C 272.641 234.451, 267.868 220.291, 267.469 213.140 C 267.273 209.642, 266.863 206.529, 266.557 206.223 C 265.621 205.288, 265.938 191.464, 266.919 190.450 C 267.425 189.928, 268.063 186.575, 268.337 183 C 269.026 174.019, 270.363 167.198, 272.332 162.628 C 273.249 160.498, 274 157.531, 274 156.033 C 274 154.536, 274.889 150.653, 275.975 147.405 C 277.602 142.543, 277.955 138.730, 277.975 125.809 C 277.990 116.400, 277.600 109.871, 277 109.500 C 276.450 109.160, 276 107.585, 276 106 C 276 104.415, 275.546 102.837, 274.991 102.494 C 274.436 102.151, 273.167 100.283, 272.172 98.343 C 270.363 94.817, 267.411 93.268, 256 89.853 C 246.282 86.946, 221.918 85.315, 216.500 87.210 M 251.635 109.646 C 250.869 115.238, 252.027 117, 256.469 117 C 261.254 117, 264 114.131, 264 109.133 L 264 105 258.136 105 L 252.272 105 251.635 109.646 M 287.572 110.250 C 287.899 112.588, 288.335 115.049, 288.540 115.720 C 288.746 116.391, 288.021 118.959, 286.929 121.428 C 285.799 123.982, 284.676 129.394, 284.321 133.992 C 283.979 138.434, 283.316 142.305, 282.849 142.593 C 281.438 143.465, 281.896 148.669, 283.501 150 C 285.574 151.721, 293.653 152.496, 296.310 151.230 C 297.515 150.655, 300.634 149.636, 303.242 148.965 C 305.850 148.294, 309.136 146.676, 310.546 145.370 C 311.955 144.064, 314.322 142.368, 315.806 141.600 C 317.290 140.833, 319.345 139.276, 320.372 138.142 C 322.215 136.105, 322.168 135.999, 316.669 129.735 C 313.605 126.246, 309.999 122.802, 308.654 122.082 C 307.309 121.363, 305.248 119.475, 304.075 117.887 C 302.901 116.299, 301.348 115, 300.625 115 C 299.902 115, 298.495 114.100, 297.500 113 C 296.505 111.900, 295.163 111, 294.519 111 C 293.875 111, 292.292 109.875, 291 108.500 C 287.683 104.969, 286.889 105.374, 287.572 110.250 M 185.908 117.050 C 183.356 119.223, 178.585 122.633, 173.294 126.066 C 171.531 127.209, 169.829 128.964, 169.511 129.965 C 169.193 130.966, 167.584 132.344, 165.935 133.027 C 164.286 133.710, 161.314 135.558, 159.331 137.134 C 157.348 138.710, 155.132 140, 154.408 140 C 153.684 140, 152.032 141.012, 150.737 142.250 C 149.442 143.488, 147.561 144.966, 146.556 145.537 C 145.304 146.247, 144.932 147.211, 145.373 148.600 C 146.430 151.930, 164.420 157.005, 175.092 156.983 C 181.937 156.969, 196.460 155.772, 204 154.600 C 208.585 153.888, 224.127 149.010, 225.410 147.882 C 225.933 147.421, 225.136 145.293, 223.531 142.867 C 220.879 138.859, 220.767 138.222, 221.246 129.827 L 221.749 121 217.624 121.024 C 215.356 121.037, 211.700 121.465, 209.501 121.975 C 207 122.555, 205.146 122.546, 204.551 121.951 C 204.028 121.428, 202.326 121, 200.768 121 C 197.006 121, 191.120 118.476, 190.379 116.545 C 189.596 114.504, 188.793 114.595, 185.908 117.050 M 377 247.036 C 372.875 249.227, 367.587 251.751, 365.250 252.646 C 362.913 253.540, 361 254.661, 361 255.136 C 361 255.611, 360.473 256, 359.829 256 C 359.185 256, 357.947 256.611, 357.079 257.359 C 356.210 258.106, 352.350 260.407, 348.500 262.472 C 344.650 264.537, 341.073 266.626, 340.550 267.113 C 339.284 268.295, 342.615 268.276, 344.834 267.089 C 345.770 266.588, 350.189 265.859, 354.653 265.470 L 362.770 264.762 366.550 268.226 C 369.897 271.293, 370.416 272.415, 371.074 277.998 C 371.905 285.043, 371.149 287.652, 366.790 292.785 C 365.255 294.591, 364 296.487, 364 296.996 C 364 297.967, 373.134 301, 376.059 301 C 378.537 301, 379.804 302.987, 381.059 308.838 C 381.966 313.070, 381.889 314.876, 380.647 318.523 C 379.162 322.880, 379.174 322.977, 381.060 321.968 C 382.127 321.397, 383 320.592, 383 320.180 C 383 319.768, 386.187 316.205, 390.083 312.263 C 398.505 303.740, 398.951 301.280, 391.963 301.888 C 382.976 302.671, 382.512 302.604, 382.261 300.500 C 381.982 298.167, 384.023 295.570, 389.250 291.606 C 391.313 290.042, 393 288.283, 393 287.696 C 393 287.109, 394.001 285.564, 395.224 284.262 C 397.109 282.255, 397.223 281.753, 395.974 280.963 C 393.866 279.630, 388.317 279.785, 385.983 281.243 C 381.169 284.249, 378.893 277.814, 382.799 272.239 C 386.612 266.797, 391.664 248.669, 390.442 244.816 C 389.530 241.944, 385.258 242.650, 377 247.036 M 283.250 399.710 C 281.257 400.090, 281 400.738, 281 405.393 C 281 412.121, 277.217 424.751, 272.434 433.994 C 268.383 441.822, 259.300 451.991, 256.337 452.015 C 255.326 452.024, 253.825 452.491, 253 453.053 C 251.532 454.053, 274.470 453.515, 279.750 452.426 C 282.390 451.881, 282.669 449.400, 280.447 446.228 C 279.039 444.218, 279.050 443.473, 280.560 438.256 C 281.475 435.090, 283.138 430.025, 284.254 427 C 289.799 411.968, 290.981 408.310, 291.579 404.323 C 292.162 400.431, 292.024 400, 290.195 400 C 289.078 400, 287.564 399.838, 286.832 399.640 C 286.099 399.443, 284.488 399.474, 283.250 399.710 M 208.471 402.943 C 209.429 404.796, 209.624 406.115, 208.996 406.502 C 208.448 406.841, 208 410.960, 208 415.655 C 208 430.748, 203.209 441.309, 193.436 447.757 C 190.721 449.548, 188.345 451.476, 188.155 452.043 C 187.929 452.716, 191.368 452.973, 198.107 452.786 L 208.404 452.500 209.743 445.500 C 211.417 436.745, 211.686 435.984, 217.965 422.164 C 223.560 409.853, 223.939 406.580, 220 404.598 C 218.625 403.905, 216.001 402.588, 214.169 401.669 C 212.337 400.751, 209.963 400, 208.893 400 C 207.063 400, 207.038 400.173, 208.471 402.943" stroke="none" fill="#2f2d28" fill-rule="evenodd"/><path d="M 237.728 49.722 C 239.503 49.943, 242.653 49.946, 244.728 49.730 C 246.802 49.513, 245.350 49.333, 241.500 49.328 C 237.650 49.324, 235.952 49.501, 237.728 49.722 M 253.500 49.724 C 254.600 49.994, 256.175 50.729, 257 51.358 C 258.305 52.351, 258.321 52.272, 257.128 50.750 C 256.373 49.788, 254.798 49.052, 253.628 49.116 C 251.607 49.226, 251.600 49.257, 253.500 49.724 M 223.015 65.250 C 223.005 66.426, 223.738 66.974, 225.250 66.921 C 226.753 66.868, 227.002 66.653, 226 66.271 C 225.175 65.957, 224.169 65.205, 223.765 64.600 C 223.312 63.922, 223.025 64.171, 223.015 65.250 M 250.264 67.718 C 251.784 67.947, 254.034 67.941, 255.264 67.704 C 256.494 67.467, 255.250 67.279, 252.500 67.286 C 249.750 67.294, 248.744 67.488, 250.264 67.718 M 235.250 87.689 C 236.213 87.941, 237.787 87.941, 238.750 87.689 C 239.713 87.438, 238.925 87.232, 237 87.232 C 235.075 87.232, 234.287 87.438, 235.250 87.689 M 254.083 90.359 C 254.313 90.557, 255.850 91.021, 257.500 91.390 C 259.691 91.880, 260.095 91.787, 259 91.046 C 257.650 90.132, 253.080 89.494, 254.083 90.359 M 200 113.500 C 200.685 114.325, 201.752 114.964, 202.372 114.921 C 203.075 114.872, 203.026 114.651, 202.244 114.336 C 201.553 114.057, 201.242 113.418, 201.553 112.915 C 201.864 112.412, 201.361 112, 200.437 112 C 199.055 112, 198.977 112.268, 200 113.500 M 228.777 113.557 C 230 114.413, 231 115.763, 231 116.557 C 231 117.351, 231.450 118, 232 118 C 233.913 118, 232.984 115.220, 230.535 113.615 C 227.376 111.545, 225.832 111.494, 228.777 113.557 M 216.762 114.707 C 218.006 114.946, 219.806 114.937, 220.762 114.687 C 221.718 114.437, 220.700 114.241, 218.500 114.252 C 216.300 114.263, 215.518 114.468, 216.762 114.707 M 255 119 C 255 119.550, 255.900 120, 257 120 C 258.100 120, 259 119.550, 259 119 C 259 118.450, 258.100 118, 257 118 C 255.900 118, 255 118.450, 255 119 M 228.336 131 C 228.336 135.125, 228.513 136.813, 228.728 134.750 C 228.944 132.688, 228.944 129.313, 228.728 127.250 C 228.513 125.188, 228.336 126.875, 228.336 131 M 232 142.278 C 232 142.981, 232.946 144.365, 234.102 145.355 C 235.507 146.558, 236.052 147.948, 235.746 149.547 C 235.495 150.863, 235.674 151.702, 236.144 151.411 C 237.541 150.548, 237.118 146.343, 235.500 145 C 234.675 144.315, 234 143.135, 234 142.378 C 234 141.620, 233.550 141, 233 141 C 232.450 141, 232 141.575, 232 142.278 M 270.647 155.200 C 271.504 159.780, 272.688 160.771, 272.189 156.490 C 271.963 154.560, 271.386 152.738, 270.905 152.441 C 270.424 152.144, 270.308 153.385, 270.647 155.200 M 211.921 171.751 C 212.399 175.202, 212.468 175.272, 212.798 172.628 C 212.995 171.049, 212.762 169.362, 212.279 168.879 C 211.776 168.376, 211.623 169.601, 211.921 171.751 M 267.093 178 C 266.452 184.267, 266.495 185.905, 267.282 185.118 C 267.747 184.653, 267.953 182.298, 267.739 179.886 C 267.525 177.474, 267.234 176.625, 267.093 178 M 214 184.441 C 214 185.784, 214.369 187.110, 214.819 187.388 C 215.270 187.667, 215.443 186.568, 215.206 184.947 C 214.681 181.373, 214 181.087, 214 184.441 M 266.286 211.500 C 266.294 214.250, 266.488 215.256, 266.718 213.736 C 266.947 212.216, 266.941 209.966, 266.704 208.736 C 266.467 207.506, 266.279 208.750, 266.286 211.500 M 213.116 216.550 C 213.052 217.678, 212.552 219.142, 212.004 219.804 C 211.456 220.466, 211.724 220.384, 212.600 219.622 C 213.476 218.860, 213.976 217.396, 213.712 216.368 C 213.279 214.684, 213.221 214.702, 213.116 216.550 M 270.682 232.500 C 271.325 235.717, 271.760 236.579, 272.408 235.917 C 272.632 235.688, 272.200 234.150, 271.449 232.500 L 270.082 229.500 270.682 232.500 M 271 238.588 C 271 239.365, 271.413 240, 271.918 240 C 272.423 240, 273.611 240.297, 274.558 240.661 C 275.988 241.209, 276.106 241.011, 275.252 239.486 C 274.006 237.259, 271 236.625, 271 238.588 M 284.086 252.618 C 285.414 254.333, 286.701 255.557, 286.947 255.338 C 287.193 255.119, 286.106 253.716, 284.533 252.220 L 281.672 249.500 284.086 252.618 M 363.352 253.993 C 362.171 254.470, 360.926 255.311, 360.585 255.862 C 360.245 256.413, 361.324 256.186, 362.983 255.359 C 364.642 254.531, 366 253.661, 366 253.427 C 366 252.916, 366.049 252.905, 363.352 253.993 M 305 264.954 C 305.825 265.513, 307.363 265.976, 308.417 265.985 C 310.975 266.005, 310.177 265.433, 306.500 264.610 C 304.309 264.120, 303.905 264.213, 305 264.954 M 391.658 267.675 C 390.426 268.908, 390.998 269.500, 393.566 269.648 C 394.976 269.730, 395.988 269.715, 395.815 269.615 C 395.642 269.516, 394.784 268.890, 393.908 268.226 C 393.032 267.561, 392.020 267.313, 391.658 267.675 M 401.896 269.823 C 404.221 271.448, 402.378 273.989, 398.781 274.116 C 396.939 274.181, 396.302 274.439, 397.329 274.705 C 400.817 275.606, 404.156 274.107, 403.815 271.793 C 403.642 270.618, 402.825 269.475, 402 269.252 C 400.751 268.916, 400.734 269.011, 401.896 269.823 M 354.450 271.903 C 353.928 272.400, 352.600 273.005, 351.500 273.248 C 349.742 273.637, 349.702 273.779, 351.173 274.423 C 352.266 274.901, 353.565 274.435, 354.923 273.077 C 356.895 271.105, 356.451 270.002, 354.450 271.903 M 370.658 272 C 371.102 272.825, 371.747 275.750, 372.091 278.500 L 372.718 283.500 372.859 278.941 C 372.947 276.099, 372.407 273.651, 371.426 272.441 C 370.560 271.374, 370.215 271.175, 370.658 272 M 379.160 277.050 C 379.005 280.495, 380.365 283, 382.391 283 C 382.936 283, 382.646 282.438, 381.747 281.750 C 380.848 281.063, 379.934 278.925, 379.716 277 L 379.320 273.500 379.160 277.050 M 364.300 280 C 364.300 283.025, 364.487 284.262, 364.716 282.750 C 364.945 281.238, 364.945 278.762, 364.716 277.250 C 364.487 275.738, 364.300 276.975, 364.300 280 M 388 282.102 C 389.205 282.963, 389.058 283.077, 387.251 282.681 C 386.014 282.410, 384.796 282.521, 384.545 282.927 C 384.294 283.334, 384.631 283.688, 385.294 283.714 C 385.957 283.740, 387.288 284.089, 388.250 284.488 C 389.412 284.970, 390.005 284.758, 390.015 283.857 C 390.028 282.757, 390.201 282.769, 390.927 283.917 C 391.457 284.754, 391.452 286.310, 390.915 287.724 C 390.322 289.283, 390.353 289.900, 391.003 289.498 C 391.551 289.159, 392 288.303, 392 287.596 C 392 286.889, 392.900 285.495, 394 284.500 C 397.040 281.749, 396.448 280.999, 391.250 281.015 C 387.603 281.027, 386.848 281.279, 388 282.102 M 371.531 286.859 C 371.185 288.432, 369.575 290.991, 367.951 292.547 C 364.527 295.827, 364.216 297.562, 366.925 298.270 C 368.273 298.623, 368.691 298.359, 368.320 297.393 C 368.029 296.633, 367.388 296.260, 366.895 296.565 C 364.583 297.994, 366.379 295.033, 369.500 292.269 C 371.798 290.234, 373 288.283, 373 286.585 C 373 283.172, 372.313 283.300, 371.531 286.859 M 390.475 303.040 C 390.061 303.710, 390.720 303.857, 392.326 303.454 C 394.227 302.977, 394.933 303.265, 395.294 304.664 C 395.678 306.151, 395.790 306.073, 395.884 304.250 C 395.974 302.499, 395.458 302, 393.559 302 C 392.216 302, 390.829 302.468, 390.475 303.040 M 354 306 L 350.500 306.737 353.691 306.868 C 355.446 306.941, 357.160 306.550, 357.500 306 C 357.840 305.450, 357.979 305.059, 357.809 305.132 C 357.639 305.204, 355.925 305.595, 354 306 M 382.272 311 C 382.272 313.475, 382.467 314.488, 382.706 313.250 C 382.944 312.012, 382.944 309.988, 382.706 308.750 C 382.467 307.512, 382.272 308.525, 382.272 311 M 386.635 313.583 C 385.059 314.969, 383.966 316.300, 384.208 316.541 C 384.449 316.782, 385.935 315.634, 387.510 313.990 C 390.991 310.357, 390.541 310.148, 386.635 313.583 M 366 337.060 C 362.717 337.808, 362.795 337.846, 367.248 337.672 C 369.859 337.569, 372.186 337.939, 372.419 338.493 C 372.652 339.047, 372.878 338.712, 372.921 337.750 C 373.006 335.866, 371.782 335.744, 366 337.060 M 343.924 374.678 L 341.500 377.355 344.750 375.109 C 348.030 372.843, 348.687 372, 347.174 372 C 346.720 372, 345.258 373.205, 343.924 374.678 M 181.750 376.392 C 180.787 377.123, 180 378.334, 180 379.083 C 180 379.864, 180.664 379.497, 181.557 378.223 C 182.413 377, 183.737 376, 184.500 376 C 185.263 376, 186.587 377, 187.443 378.223 C 188.299 379.445, 188.986 380.007, 188.968 379.473 C 188.913 377.797, 186.343 374.999, 184.890 375.032 C 184.125 375.049, 182.713 375.661, 181.750 376.392 M 289.750 394.740 C 293.188 394.936, 298.813 394.936, 302.250 394.740 C 305.688 394.545, 302.875 394.385, 296 394.385 C 289.125 394.385, 286.313 394.545, 289.750 394.740 M 237 401 L 232.500 401.700 237.250 401.850 C 239.863 401.932, 242 401.550, 242 401 C 242 400.450, 241.887 400.068, 241.750 400.150 C 241.613 400.233, 239.475 400.615, 237 401" stroke="none" fill="#f7eedd" fill-rule="evenodd"/></svg>